<svg width="34" height="30" viewBox="0 0 34 30" fill="none" xmlns="http://www.w3.org/2000/svg">
<ellipse cx="17" cy="26" rx="16.9091" ry="4" fill="#FFDA44"/>
<path d="M11.2727 23C11.2727 24.5188 9.25798 25.75 6.77271 25.75C4.28743 25.75 2.27271 24.5188 2.27271 23C2.27271 21.4812 4.28743 20.25 6.77271 20.25C9.25798 20.25 11.2727 21.4812 11.2727 23ZM11.2727 23V3.75L29.2727 1V20.25M29.2727 20.25C29.2727 21.7688 27.2581 23 24.7727 23C22.2874 23 20.2727 21.7688 20.2727 20.25C20.2727 18.7312 22.2874 17.5 24.7727 17.5C27.2581 17.5 29.2727 18.7312 29.2727 20.25ZM11.2727 9.25L29.2727 6.5" stroke="white" stroke-width="2" stroke-linecap="round" stroke-linejoin="round"/>
</svg>
